<svg preserveAspectRatio="none" overflow="visible" style="display: block;" width="29.313" height="29.313" viewBox="0 0 29.313 29.313" fill="none" xmlns="http://www.w3.org/2000/svg">
<g id="Icon">
<path id="Vector" d="M23.2061 13.4352H6.10687C4.75778 13.4352 3.66412 14.5289 3.66412 15.878V24.4276C3.66412 25.7767 4.75778 26.8703 6.10687 26.8703H23.2061C24.5552 26.8703 25.6489 25.7767 25.6489 24.4276V15.878C25.6489 14.5289 24.5552 13.4352 23.2061 13.4352Z" stroke="#DD0912" stroke-width="2.44275" stroke-linecap="round" stroke-linejoin="round"/>
<path id="Vector_2" d="M8.54962 13.4352V8.54972C8.54962 6.93008 9.19302 5.37677 10.3383 4.23151C11.4835 3.08625 13.0368 2.44285 14.6565 2.44285C16.2761 2.44285 17.8294 3.08625 18.9747 4.23151C20.12 5.37677 20.7634 6.93008 20.7634 8.54972V13.4352" stroke="#DD0912" stroke-width="2.44275" stroke-linecap="round" stroke-linejoin="round"/>
</g>
</svg>
