<svg preserveAspectRatio="none" overflow="visible" style="display: block;" width="21" height="21" viewBox="0 0 21 21" fill="none" xmlns="http://www.w3.org/2000/svg">
<path id="Vector" d="M7.73684 15.1667V5.83333C7.73684 5.21449 7.96974 4.621 8.38429 4.18342C8.79884 3.74583 9.3611 3.5 9.94737 3.5H19.8947V2.33333C19.8947 1.05 18.9 0 17.6842 0H2.21053C1.62426 0 1.062 0.245833 0.647448 0.683417C0.232894 1.121 0 1.71449 0 2.33333V18.6667C0 19.2855 0.232894 19.879 0.647448 20.3166C1.062 20.7542 1.62426 21 2.21053 21H17.6842C18.9 21 19.8947 19.95 19.8947 18.6667V17.5H9.94737C9.3611 17.5 8.79884 17.2542 8.38429 16.8166C7.96974 16.379 7.73684 15.7855 7.73684 15.1667ZM11.0526 5.83333C10.4447 5.83333 9.94737 6.35833 9.94737 7V14C9.94737 14.6417 10.4447 15.1667 11.0526 15.1667H21V5.83333H11.0526ZM14.3684 12.25C13.4511 12.25 12.7105 11.4683 12.7105 10.5C12.7105 9.53167 13.4511 8.75 14.3684 8.75C15.2858 8.75 16.0263 9.53167 16.0263 10.5C16.0263 11.4683 15.2858 12.25 14.3684 12.25Z" fill="#DD0912"/>
</svg>
